# xmcd
#
# Track frame offsets:
#	150
#	13033
#	23888
#	33239
#	45739
#	58407
#	71910
#	80789
#	94556
#	105251
#	126826
#	140417
#	154152
#	175312
#	194303
#
# Disc length: 2751 seconds
#
# Revision: 2
# Processed by: cddbd v1.5.2PL0 Copyright (c) Steve Scherf et al.
# Submitted via: audiograbber 1.83.01
#
DISCID=cd0abd0f
DTITLE=Kirby Knob Boys - The Mighty Saguaro
DYEAR=2008
DGENRE=Bluegrass
TTITLE0=All Because of You
TTITLE1=California Cottonfields
TTITLE2=The Mighty Saguaro
TTITLE3=The Mornin' Light
TTITLE4=If I Were an Eagle
TTITLE5=I'll Never Give Up on You
TTITLE6=The Sugar Mill
TTITLE7=I Wanna Go Home
TTITLE8=Written on the Page
TTITLE9=Life on the Delta
TTITLE10=Legend of the Rebel Soldier
TTITLE11=Dirty Old Town
TTITLE12=Out Among the Stars
TTITLE13=Seven Bridges Road
TTITLE14=Hickory Wind 
EXTD=2nd Submission, first was in error, please delete it.  
EXTT0=
EXTT1=
EXTT2=
EXTT3=
EXTT4=
EXTT5=
EXTT6=
EXTT7=
EXTT8=
EXTT9=
EXTT10=
EXTT11=
EXTT12=
EXTT13=
EXTT14=
PLAYORDER=
